<svg width="742" height="255" viewBox="0 0 742 255" fill="none" xmlns="http://www.w3.org/2000/svg">
<g filter="url(#filter0_d_24_7)">
<path d="M25.6 203.4C22.9333 203.4 20.8667 202.667 19.4 201.2C18.0667 199.6 17.4 197.467 17.4 194.8V68.2C17.4 65.4 18.0667 63.2667 19.4 61.8C20.8667 60.3333 22.9333 59.6 25.6 59.6C28.2667 59.6 30.2667 60.3333 31.6 61.8C33.0667 63.2667 33.8 65.4 33.8 68.2V123.4H118.4V68.2C118.4 65.4 119.067 63.2667 120.4 61.8C121.867 60.3333 123.933 59.6 126.6 59.6C129.267 59.6 131.267 60.3333 132.6 61.8C134.067 63.2667 134.8 65.4 134.8 68.2V194.8C134.8 197.467 134.067 199.6 132.6 201.2C131.267 202.667 129.267 203.4 126.6 203.4C123.933 203.4 121.867 202.667 120.4 201.2C119.067 199.6 118.4 197.467 118.4 194.8V137.6H33.8V194.8C33.8 197.467 33.1333 199.6 31.8 201.2C30.4667 202.667 28.4 203.4 25.6 203.4ZM177.748 203.4C175.082 203.4 173.015 202.667 171.548 201.2C170.215 199.6 169.548 197.467 169.548 194.8V68.2C169.548 65.4 170.215 63.2667 171.548 61.8C173.015 60.3333 175.082 59.6 177.748 59.6C180.415 59.6 182.415 60.3333 183.748 61.8C185.215 63.2667 185.948 65.4 185.948 68.2V194.8C185.948 197.467 185.282 199.6 183.948 201.2C182.615 202.667 180.548 203.4 177.748 203.4ZM226.516 166.2C224.916 166.2 223.582 165.667 222.516 164.6C221.582 163.533 221.049 161.933 220.916 159.8L216.916 70.2C216.782 67 217.516 64.4667 219.116 62.6C220.849 60.6 223.316 59.6 226.516 59.6C229.582 59.6 231.916 60.6 233.516 62.6C235.116 64.4667 235.849 67 235.716 70.2L231.716 159.8C231.716 161.933 231.249 163.533 230.316 164.6C229.382 165.667 228.116 166.2 226.516 166.2ZM226.516 202.8C223.182 202.8 220.516 201.8 218.516 199.8C216.516 197.667 215.516 195 215.516 191.8C215.516 188.6 216.516 186 218.516 184C220.516 181.867 223.182 180.8 226.516 180.8C229.849 180.8 232.449 181.867 234.316 184C236.316 186 237.316 188.6 237.316 191.8C237.316 195 236.316 197.667 234.316 199.8C232.449 201.8 229.849 202.8 226.516 202.8Z" fill="#D91B1B"/>
<path d="M337.6 203.4C334.933 203.4 332.867 202.667 331.4 201.2C330.067 199.6 329.4 197.467 329.4 194.8V68.2C329.4 65.4 330.067 63.2667 331.4 61.8C332.867 60.3333 334.933 59.6 337.6 59.6C340.267 59.6 342.267 60.3333 343.6 61.8C345.067 63.2667 345.8 65.4 345.8 68.2V194.8C345.8 197.467 345.133 199.6 343.8 201.2C342.467 202.667 340.4 203.4 337.6 203.4ZM429.33 203.4C427.196 203.4 425.463 202.933 424.13 202C422.93 200.933 422.196 199.6 421.93 198C421.796 196.267 422.196 194.333 423.13 192.2L478.13 67C479.33 64.3333 480.73 62.4667 482.33 61.4C484.063 60.2 485.93 59.6 487.93 59.6C489.93 59.6 491.73 60.2 493.33 61.4C495.063 62.4667 496.463 64.3333 497.53 67L552.73 192.2C553.796 194.333 554.196 196.267 553.93 198C553.796 199.733 553.13 201.067 551.93 202C550.73 202.933 549.063 203.4 546.93 203.4C544.53 203.4 542.596 202.8 541.13 201.6C539.663 200.267 538.463 198.4 537.53 196L522.73 161.8L530.73 166H444.73L452.93 161.8L438.33 196C437.13 198.533 435.863 200.4 434.53 201.6C433.196 202.8 431.463 203.4 429.33 203.4ZM487.73 80.2L455.53 156L450.73 152.2H524.73L520.33 156L488.13 80.2H487.73ZM586.033 203.4C583.633 203.4 581.766 202.733 580.433 201.4C579.099 199.933 578.433 197.933 578.433 195.4V67.6C578.433 64.9333 579.099 62.9333 580.433 61.6C581.766 60.2667 583.633 59.6 586.033 59.6C588.166 59.6 589.833 60.0667 591.033 61C592.366 61.8 593.566 63.2 594.633 65.2L649.433 168.4H643.433L698.033 65.2C699.099 63.2 700.233 61.8 701.433 61C702.633 60.0667 704.366 59.6 706.633 59.6C708.899 59.6 710.699 60.2667 712.033 61.6C713.366 62.9333 714.033 64.9333 714.033 67.6V195.4C714.033 197.933 713.366 199.933 712.033 201.4C710.833 202.733 708.966 203.4 706.433 203.4C704.033 203.4 702.166 202.733 700.833 201.4C699.499 199.933 698.833 197.933 698.833 195.4V83H703.633L653.633 176.8C652.699 178.533 651.699 179.8 650.633 180.6C649.699 181.267 648.299 181.6 646.433 181.6C644.566 181.6 643.099 181.2 642.033 180.4C640.966 179.6 640.033 178.4 639.233 176.8L588.633 82.8H593.433V195.4C593.433 197.933 592.766 199.933 591.433 201.4C590.233 202.733 588.433 203.4 586.033 203.4Z" fill="black" fill-opacity="0.47"/>
</g>
<defs>
<filter id="filter0_d_24_7" x="14.3999" y="59.6" width="726.633" height="178.8" filterUnits="userSpaceOnUse" color-interpolation-filters="sRGB">
<feFlood flood-opacity="0" result="BackgroundImageFix"/>
<feColorMatrix in="SourceAlpha" type="matrix" values="0 0 0 0 0 0 0 0 0 0 0 0 0 0 0 0 0 0 127 0" result="hardAlpha"/>
<feOffset dx="12" dy="20"/>
<feGaussianBlur stdDeviation="7.5"/>
<feComposite in2="hardAlpha" operator="out"/>
<feColorMatrix type="matrix" values="0 0 0 0 0 0 0 0 0 0 0 0 0 0 0 0 0 0 0.42 0"/>
<feBlend mode="normal" in2="BackgroundImageFix" result="effect1_dropShadow_24_7"/>
<feBlend mode="normal" in="SourceGraphic" in2="effect1_dropShadow_24_7" result="shape"/>
</filter>
</defs>
</svg>
